<svg xmlns="http://www.w3.org/2000/svg" fill="none" viewBox="0 0 32 32"><path fill="#fff" d="M6.5 29h19c.275 0 .5-.225.5-.5V9h-4.5c-.827 0-1.5-.673-1.5-1.5V3H6.5c-.275 0-.5.225-.5.5v25c0 .275.225.5.5.5z"/><path fill="#fff" d="M25.293 8 21 3.707V7.5c0 .275.225.5.5.5h3.793z"/><path fill="#605E5C" fill-rule="evenodd" d="m26.56 7.854-5.414-5.415A1.51 1.51 0 0 0 20.086 2H6.5C5.673 2 5 2.673 5 3.5v25c0 .827.673 1.5 1.5 1.5h19c.827 0 1.5-.673 1.5-1.5V8.914c0-.4-.156-.777-.44-1.06zM21 3.707 25.293 8H21.5a.501.501 0 0 1-.5-.5V3.707zM6.5 29h19c.275 0 .5-.225.5-.5V9h-4.5c-.827 0-1.5-.673-1.5-1.5V3H6.5c-.275 0-.5.225-.5.5v25a.5.5 0 0 0 .5.5z" clip-rule="evenodd" opacity=".64"/><path fill="#C8C6C4" fill-rule="evenodd" d="M23.5 15h-15a.5.5 0 0 1 0-1h15a.5.5 0 0 1 0 1zm0 2h-15a.5.5 0 0 1 0-1h15a.5.5 0 0 1 0 1zm-15 2h15a.5.5 0 0 0 0-1h-15a.5.5 0 0 0 0 1zm15 2h-15a.5.5 0 0 1 0-1h15a.5.5 0 0 1 0 1zm-15 2h15a.5.5 0 0 0 0-1h-15a.5.5 0 0 0 0 1z" clip-rule="evenodd"/></svg>