<svg xmlns="http://www.w3.org/2000/svg" fill="none" viewBox="0 0 32 32"><path fill="#FFB900" d="m15 8-1.268-1.268A2.5 2.5 0 0 0 11.964 6H3.5A1.5 1.5 0 0 0 2 7.5v17A1.5 1.5 0 0 0 3.5 26h25a1.5 1.5 0 0 0 1.5-1.5v-15A1.5 1.5 0 0 0 28.5 8H15z"/><path fill="#FFD75E" d="m15 8-1.268 1.268a2.5 2.5 0 0 1-1.768.732H2v14.5A1.5 1.5 0 0 0 3.5 26h25a1.5 1.5 0 0 0 1.5-1.5v-15A1.5 1.5 0 0 0 28.5 8H15z"/><path fill="url(#a)" d="m15 8-1.268 1.268a2.5 2.5 0 0 1-1.768.732H2v14.5A1.5 1.5 0 0 0 3.5 26h25a1.5 1.5 0 0 0 1.5-1.5v-15A1.5 1.5 0 0 0 28.5 8H15z"/><path fill="#BF5712" d="M3 25.5c-.286 0-.55-.084-.777-.223.263.432.734.723 1.277.723h25c.543 0 1.014-.291 1.277-.723A1.487 1.487 0 0 1 29 25.5H3z"/><path fill="#fff" d="M14.129 9.621 15.75 8H15l-1.268 1.268a2.5 2.5 0 0 1-1.768.732H2v.5h10.007a3 3 0 0 0 2.122-.879z" opacity=".4"/><path fill="#BF5712" fill-rule="evenodd" d="M4.5 15h8a.5.5 0 0 1 .5.5v6a.5.5 0 0 1-.5.5h-8a.5.5 0 0 1-.5-.5v-6a.5.5 0 0 1 .5-.5zm7.25 6a.25.25 0 0 0 .25-.25v-4.5a.25.25 0 0 0-.25-.25h-6.5a.25.25 0 0 0-.25.25V18h2.5a.5.5 0 0 1 0 1H5v1.75c0 .138.112.25.25.25h6.5zM2 16h1v5H2v-5zm28 0H14v5h16v-5z" clip-rule="evenodd"/><defs><linearGradient id="a" x1="2" x2="2" y1="8" y2="26" gradientUnits="userSpaceOnUse"><stop stop-color="#fff" stop-opacity=".01"/><stop offset=".999" stop-color="#FFD75E" stop-opacity=".3"/></linearGradient></defs></svg>